<svg viewBox="0 0 64 64" fill="none" xmlns="http://www.w3.org/2000/svg">
  <defs>
    <linearGradient id="grad-team" x1="0%" y1="0%" x2="100%" y2="100%">
      <stop offset="0%" style="stop-color:#5269c3;stop-opacity:1" />
      <stop offset="100%" style="stop-color:#90a0da;stop-opacity:1" />
    </linearGradient>
  </defs>
  <!-- Left person -->
  <circle cx="18" cy="18" r="6" stroke="url(#grad-team)" stroke-width="1.5" fill="none"/>
  <path d="M12 28C12 25.5 14.69 24 18 24C21.31 24 24 25.5 24 28V36C24 37.1 23.1 38 22 38H14C12.9 38 12 37.1 12 36V28Z" stroke="url(#grad-team)" stroke-width="1.5" fill="none" stroke-linejoin="round"/>

  <!-- Center person (slightly elevated) -->
  <circle cx="32" cy="16" r="7" stroke="url(#grad-team)" stroke-width="1.5" fill="none"/>
  <path d="M24 28C24 24.5 27.13 22 32 22C36.87 22 40 24.5 40 28V37C40 38.66 38.66 40 37 40H27C25.34 40 24 38.66 24 37V28Z" stroke="url(#grad-team)" stroke-width="1.5" fill="none" stroke-linejoin="round"/>

  <!-- Right person -->
  <circle cx="46" cy="18" r="6" stroke="url(#grad-team)" stroke-width="1.5" fill="none"/>
  <path d="M40 28C40 25.5 42.69 24 46 24C49.31 24 52 25.5 52 28V36C52 37.1 51.1 38 50 38H42C40.9 38 40 37.1 40 36V28Z" stroke="url(#grad-team)" stroke-width="1.5" fill="none" stroke-linejoin="round"/>
</svg>
